<svg xmlns="http://www.w3.org/2000/svg" viewBox="0 0 32 32" fill="none">
  <!-- Lobster body -->
  <ellipse cx="16" cy="18" rx="6" ry="8" fill="#E53E3E"/>
  <ellipse cx="16" cy="18" rx="4.5" ry="6" fill="#C53030"/>
  <!-- Head -->
  <circle cx="16" cy="10" r="5" fill="#E53E3E"/>
  <circle cx="14" cy="9" r="1.2" fill="#1a1a1a"/>
  <circle cx="18" cy="9" r="1.2" fill="#1a1a1a"/>
  <!-- Antennae -->
  <path d="M14 6 Q10 1 7 2" stroke="#E53E3E" stroke-width="1.5" stroke-linecap="round" fill="none"/>
  <path d="M18 6 Q22 1 25 2" stroke="#E53E3E" stroke-width="1.5" stroke-linecap="round" fill="none"/>
  <!-- Left claw -->
  <path d="M10 14 Q5 10 4 12 Q3 14 6 15 Q4 14 4 16 Q4 18 7 16 L10 15" fill="#E53E3E"/>
  <!-- Right claw -->
  <path d="M22 14 Q27 10 28 12 Q29 14 26 15 Q28 14 28 16 Q28 18 25 16 L22 15" fill="#E53E3E"/>
  <!-- Tail segments -->
  <path d="M13 25 Q16 28 19 25" stroke="#C53030" stroke-width="1.5" fill="none"/>
  <path d="M12 27 Q16 31 20 27" stroke="#E53E3E" stroke-width="1.5" fill="none"/>
</svg>
